#!OML:ASF I:\Actors\actors\Patient Classification 1\Patient 1\Session 1\Subject1.ASF
:FULLY-SPECIFIED
:DEGREES
127
root -0.553562 17.5329 7.8772 9.27212 -2.54077 -8.48357
lowerback 2.88278 0.604202 5.66956
upperback -10.0922 1.51668 1.65885
thorax -12.4521 0.275005 -1.56093
lowerneck -10.9028 -5.22326 -2.77456
upperneck 17.5882 -8.38075 8.5415
head 7.70403 -3.43711 2.41117
rclavicle -7.45443e-015 2.3059e-014
rhumerus -45.9694 18.9315 -98.2238
rradius 72.8728
rwrist 7.03213
rhand 15.0357 -41.22
rfingers 7.12502
rthumb 39.8853 -66.4806
lclavicle -7.45443e-015 2.3059e-014
lhumerus -48.9914 -20.5214 97.2816
lradius 74.5966
lwrist 16.3399
lhand -17.0504 -6.74824
lfingers 7.12502
lthumb 9.18669 23.0316
rfemur -3.72306 26.6406 24.3588
rtibia 1.52881
rfoot -11.2036 -25.6804
rtoes 2.62435
lfemur 4.74678 -44.6843 -11.9682
ltibia -4.58771
lfoot -20.3471 54.0892
ltoes 13.8528
128
root -0.559937 17.5344 7.8711 9.24511 -2.31686 -8.55316
lowerback 2.93784 0.606236 5.69432
upperback -10.1114 1.52965 1.67431
thorax -12.5086 0.278365 -1.56029
lowerneck -10.8134 -5.11848 -2.52533
upperneck 17.5638 -8.23599 8.33321
head 7.65122 -3.37341 2.31995
rclavicle -6.06293e-015 3.57812e-015
rhumerus -45.1536 19.6238 -98.1323
rradius 75.2982
rwrist 6.297
rhand 13.5573 -40.2292
rfingers 7.12502
rthumb 38.492 -65.8929
lclavicle -6.06293e-015 3.57812e-015
lhumerus -48.1617 -21.2771 97.1725
lradius 78.6084
lwrist 18.9267
lhand -17.8997 -7.66804
lfingers 7.12502
lthumb 8.36712 22.1462
rfemur -3.73667 26.5649 24.4849
rtibia 1.59853
rfoot -11.2279 -25.7935
rtoes 2.57622
lfemur 4.65603 -44.6458 -11.729
ltibia -4.67014
lfoot -19.952 53.9113
ltoes 13.5258
129
root -0.560801 17.5352 7.86858 9.20844 -2.08697 -8.58984
lowerback 2.92814 0.591375 5.7488
upperback -10.1347 1.51525 1.66944
thorax -12.5309 0.265117 -1.59369
lowerneck -10.6263 -5.01751 -2.19595
upperneck 17.4732 -8.09347 8.06639
head 7.55431 -3.31549 2.19847
rclavicle -1.09332e-014 2.70347e-014
rhumerus -44.2446 20.3788 -98.1304
rradius 77.2967
rwrist 5.23755
rhand 11.2555 -39.4385
rfingers 7.12502
rthumb 36.3161 -65.6767
lclavicle -1.09332e-014 2.70347e-014
lhumerus -47.0045 -21.8124 96.9939
lradius 82.0167
lwrist 21.0609
lhand -18.9535 -8.45926
lfingers 7.12502
lthumb 7.35003 21.3931
rfemur -3.71696 26.3786 24.5621
rtibia 1.63562
rfoot -11.2525 -25.8105
rtoes 2.56672
lfemur 4.62673 -44.745 -11.6303
ltibia -4.70058
lfoot -19.7299 53.821
ltoes 13.2768
130
root -0.560657 17.5362 7.86865 9.13681 -1.94911 -8.62342
lowerback 2.88725 0.583914 5.78491
upperback -10.1551 1.50605 1.66339
thorax -12.5299 0.256671 -1.61843
lowerneck -10.5357 -4.88652 -1.96162
upperneck 17.6974 -7.9391 7.89267
head 7.58603 -3.23753 2.12174
rclavicle -1.16289e-014 -6.36111e-015
rhumerus -43.3598 21.4407 -98.3922
rradius 78.8577
rwrist 3.70707
rhand 7.41084 -39.1465
rfingers 7.12502
rthumb 32.6667 -66.2165
lclavicle -1.16289e-014 -6.36111e-015
lhumerus -45.4291 -22.1061 96.7218
lradius 84.5646
lwrist 22.8383
lhand -19.8493 -9.11844
lfingers 7.12502
lthumb 6.48534 20.7623
rfemur -3.64385 26.1566 24.6498
rtibia 1.65227
rfoot -11.2301 -25.7213
rtoes 2.40787
lfemur 4.70771 -44.774 -11.6274
ltibia -4.74916
lfoot -19.4457 53.783
ltoes 12.9192
131
root -0.5613 17.537 7.86621 9.08956 -1.85375 -8.594
lowerback 2.84481 0.576644 5.74412
upperback -10.2072 1.49005 1.6455
thorax -12.5657 0.250301 -1.61227
lowerneck -10.3946 -4.76349 -1.78045
upperneck 17.9262 -7.79528 7.76623
head 7.61553 -3.16505 2.06903
rclavicle -5.86415e-015 3.57812e-015
rhumerus -42.1201 22.0562 -98.1425
rradius 79.6755
rwrist 4.65833
rhand 7.66914 -38.1912
rfingers 7.12502
rthumb 32.9124 -65.2099
lclavicle -5.86415e-015 3.57812e-015
lhumerus -43.5826 -22.1679 96.3793
lradius 86.2546
lwrist 24.2602
lhand -20.276 -9.16249
lfingers 7.12502
lthumb 6.0734 20.7305
rfemur -3.61567 25.9774 24.6352
rtibia 1.67253
rfoot -11.2185 -25.653
rtoes 2.31212
lfemur 4.73584 -44.8411 -11.6827
ltibia -4.75061
lfoot -19.2078 53.8088
ltoes 12.5855
132
root -0.561969 17.5366 7.86268 9.07895 -1.74275 -8.5876
lowerback 2.75321 0.579761 5.72642
upperback -10.2893 1.48854 1.63271
thorax -12.6055 0.248497 -1.61444
lowerneck -10.23 -4.66789 -1.70514
upperneck 18.2071 -7.69247 7.72899
head 7.66823 -3.11018 2.05899
rclavicle 3.67752e-015 -2.06736e-014
rhumerus -40.9569 22.7585 -98.0373
rradius 79.9709
rwrist 5.04801
rhand 6.73149 -37.46
rfingers 7.12502
rthumb 32.0201 -64.6619
lclavicle 3.67752e-015 -2.06736e-014
lhumerus -41.5573 -22.1379 96.0429
lradius 86.9895
lwrist 25.2628
lhand -20.5634 -8.0427
lfingers 7.12502
lthumb 5.79585 21.858
rfemur -3.63725 25.877 24.6242
rtibia 1.71211
rfoot -11.276 -25.6656
rtoes 2.44918
lfemur 4.64067 -44.8785 -11.6305
ltibia -4.68398
lfoot -19.2752 53.7271
ltoes 12.6815
133
root -0.561464 17.5362 7.86197 8.98723 -1.63855 -8.60956
lowerback 2.63185 0.623249 5.75823
upperback -10.3321 1.54143 1.61184
thorax -12.5758 0.269977 -1.65989
lowerneck -10.0386 -4.61236 -1.60775
upperneck 18.5064 -7.6355 7.62057
head 7.72093 -3.08213 2.0178
rclavicle -6.95746e-016 2.3059e-014
rhumerus -39.8375 23.4648 -98.0033
rradius 79.7903
rwrist 4.98979
rhand 5.47501 -36.9927
rfingers 7.12502
rthumb 30.8229 -64.4278
lclavicle -6.95746e-016 2.3059e-014
lhumerus -39.2535 -22.1623 95.7723
lradius 86.5793
lwrist 25.6802
lhand -21.0313 -6.00649
lfingers 7.12502
lthumb 5.34408 23.9061
rfemur -3.54306 25.7951 24.6998
rtibia 1.74909
rfoot -11.3489 -25.6888
rtoes 2.62155
lfemur 4.60787 -44.6303 -11.5738
ltibia -4.62732
lfoot -19.1224 53.4068
ltoes 12.6037
134
root -0.560668 17.5354 7.86374 8.81532 -1.54047 -8.60554
lowerback 2.45226 0.672672 5.76916
upperback -10.3223 1.59378 1.59861
thorax -12.4479 0.297322 -1.68455
lowerneck -9.90695 -4.53744 -1.5195
upperneck 18.8889 -7.54778 7.4698
head 7.80908 -3.03971 1.96603
rclavicle 2.88238e-015 7.95139e-016
rhumerus -38.6422 24.3277 -97.9628
rradius 79.1718
rwrist 4.7172
rhand 4.61852 -37.0819
rfingers 7.12502
rthumb 30.006 -64.6681
lclavicle 2.88238e-015 7.95139e-016
lhumerus -36.7098 -22.2122 95.5313
lradius 85.1059
lwrist 25.1553
lhand -21.3898 -3.40993
lfingers 7.12502
lthumb 4.99796 26.5111
rfemur -3.3208 25.7389 24.803
rtibia 1.76381
rfoot -11.4364 -25.7407
rtoes 2.79959
lfemur 4.67756 -44.182 -11.6152
ltibia -4.58794
lfoot -18.5401 52.9756
ltoes 11.9321
135
root -0.561977 17.5344 7.8667 8.63157 -1.4718 -8.58376
lowerback 2.21008 0.708603 5.71811
upperback -10.295 1.61917 1.61406
thorax -12.264 0.32141 -1.63896
lowerneck -9.75299 -4.42609 -1.45942
upperneck 19.2721 -7.4038 7.32303
head 7.89222 -2.9728 1.92648
rclavicle 1.82882e-014 -3.22031e-014
rhumerus -37.3728 25.5051 -97.9818
rradius 77.9106
rwrist 5.0995
rhand 3.70332 -37.2583
rfingers 7.12502
rthumb 29.1324 -64.9992
lclavicle 1.82882e-014 -3.22031e-014
lhumerus -34.0868 -22.2726 95.2687
lradius 82.8318
lwrist 23.6462
lhand -21.046 -0.423028
lfingers 7.12502
lthumb 5.32992 29.4899
rfemur -3.07043 25.7227 24.9006
rtibia 1.75859
rfoot -11.5076 -25.814
rtoes 2.89321
lfemur 4.77996 -43.691 -11.6889
ltibia -4.55363
lfoot -17.9349 52.525
ltoes 11.1782
